<svg width="218" height="24" viewBox="0 0 218 24" fill="none" xmlns="http://www.w3.org/2000/svg">
<path opacity="0.4" d="M67.4245 1.12012C68.0433 1.12012 68.6368 1.36595 69.0744 1.80353C69.512 2.24112 69.7578 2.83461 69.7578 3.45345V19.7868C69.7578 20.4056 69.512 20.9991 69.0744 21.4367C68.6368 21.8743 68.0433 22.1201 67.4245 22.1201H51.0911C50.4723 22.1201 49.8788 21.8743 49.4412 21.4367C49.0036 20.9991 48.7578 20.4056 48.7578 19.7868V3.45345C48.7578 2.83461 49.0036 2.24112 49.4412 1.80353C49.8788 1.36595 50.4723 1.12012 51.0911 1.12012H67.4245ZM66.8411 19.2034V13.0201C66.8411 12.0114 66.4404 11.044 65.7272 10.3308C65.0139 9.61749 64.0465 9.21678 63.0378 9.21678C62.0461 9.21678 60.8911 9.82345 60.3311 10.7334V9.43845H57.0761V19.2034H60.3311V13.4518C60.3311 12.5534 61.0545 11.8184 61.9528 11.8184C62.386 11.8184 62.8014 11.9905 63.1078 12.2968C63.4141 12.6032 63.5861 13.0186 63.5861 13.4518V19.2034H66.8411ZM53.2845 7.60678C53.8043 7.60678 54.3028 7.40028 54.6704 7.03271C55.038 6.66514 55.2445 6.16661 55.2445 5.64678C55.2445 4.56178 54.3695 3.67512 53.2845 3.67512C52.7616 3.67512 52.2601 3.88285 51.8903 4.2526C51.5205 4.62236 51.3128 5.12387 51.3128 5.64678C51.3128 6.73178 52.1995 7.60678 53.2845 7.60678ZM54.9061 19.2034V9.43845H51.6745V19.2034H54.9061Z" fill="#2B306A"/>
<path opacity="0.4" d="M216.949 5.886C216.81 5.36803 216.537 4.89577 216.158 4.51648C215.778 4.13718 215.306 3.86417 214.788 3.72475C212.881 3.2085 205.216 3.2085 205.216 3.2085C205.216 3.2085 197.551 3.2085 195.643 3.72475C195.125 3.86417 194.653 4.13718 194.273 4.51648C193.894 4.89577 193.621 5.36803 193.482 5.886C193.126 7.83135 192.953 9.80584 192.966 11.7835C192.953 13.7611 193.126 15.7356 193.482 17.681C193.621 18.199 193.894 18.6712 194.273 19.0505C194.653 19.4298 195.125 19.7028 195.643 19.8422C197.551 20.3585 205.216 20.3585 205.216 20.3585C205.216 20.3585 212.881 20.3585 214.788 19.8422C215.306 19.7028 215.778 19.4298 216.158 19.0505C216.537 18.6712 216.81 18.199 216.949 17.681C217.305 15.7356 217.478 13.7611 217.466 11.7835C217.478 9.80584 217.305 7.83135 216.949 5.886ZM202.766 15.4585V8.1085L209.127 11.7835L202.766 15.4585Z" fill="#2B306A"/>
<path opacity="0.4" d="M155.299 0C148.883 0 143.633 5.23833 143.633 11.69C143.633 17.5233 147.903 22.365 153.479 23.24V15.0733H150.516V11.69H153.479V9.11167C153.479 6.18333 155.218 4.57333 157.889 4.57333C159.161 4.57333 160.491 4.795 160.491 4.795V7.67667H159.021C157.574 7.67667 157.119 8.575 157.119 9.49667V11.69H160.363L159.838 15.0733H157.119V23.24C159.869 22.8058 162.372 21.4031 164.178 19.2851C165.983 17.167 166.972 14.4733 166.966 11.69C166.966 5.23833 161.716 0 155.299 0Z" fill="#2B306A"/>
<path opacity="0.4" d="M106.695 6.37012C105.657 6.37012 104.642 6.67802 103.779 7.2549C102.915 7.83178 102.242 8.65172 101.845 9.61103C101.448 10.5703 101.344 11.6259 101.546 12.6443C101.749 13.6627 102.249 14.5982 102.983 15.3324C103.717 16.0667 104.653 16.5667 105.671 16.7692C106.689 16.9718 107.745 16.8678 108.704 16.4705C109.664 16.0731 110.484 15.4002 111.061 14.5369C111.637 13.6735 111.945 12.6585 111.945 11.6201C111.945 10.2277 111.392 8.89237 110.408 7.90781C109.423 6.92324 108.088 6.37012 106.695 6.37012ZM106.695 15.1201C106.003 15.1201 105.326 14.9148 104.751 14.5303C104.175 14.1457 103.727 13.5991 103.462 12.9595C103.197 12.32 103.128 11.6162 103.263 10.9373C103.398 10.2584 103.731 9.63473 104.22 9.14524C104.71 8.65576 105.334 8.32242 106.012 8.18737C106.691 8.05232 107.395 8.12163 108.035 8.38654C108.674 8.65145 109.221 9.10005 109.605 9.67562C109.99 10.2512 110.195 10.9279 110.195 11.6201C110.192 12.5475 109.823 13.4361 109.167 14.0918C108.511 14.7476 107.623 15.1172 106.695 15.1201ZM111.508 0.682617H101.883C100.258 0.682617 98.7004 1.32793 97.5518 2.47659C96.4031 3.62525 95.7578 5.18317 95.7578 6.80762V16.4326C95.7578 18.0571 96.4031 19.615 97.5518 20.7636C98.7004 21.9123 100.258 22.5576 101.883 22.5576H111.508C113.132 22.5576 114.69 21.9123 115.839 20.7636C116.988 19.615 117.633 18.0571 117.633 16.4326V6.80762C117.633 5.18317 116.988 3.62525 115.839 2.47659C114.69 1.32793 113.132 0.682617 111.508 0.682617ZM115.883 16.4326C115.883 17.0072 115.77 17.5761 115.55 18.1069C115.33 18.6377 115.008 19.12 114.601 19.5262C114.195 19.9325 113.713 20.2547 113.182 20.4746C112.651 20.6945 112.082 20.8076 111.508 20.8076H101.883C101.308 20.8076 100.739 20.6945 100.209 20.4746C99.6778 20.2547 99.1955 19.9325 98.7892 19.5262C98.383 19.12 98.0607 18.6377 97.8408 18.1069C97.621 17.5761 97.5078 17.0072 97.5078 16.4326V6.80762C97.5078 5.64729 97.9687 4.5345 98.7892 3.71403C99.6097 2.89355 100.722 2.43262 101.883 2.43262H111.508C112.082 2.43262 112.651 2.54578 113.182 2.76564C113.713 2.98551 114.195 3.30777 114.601 3.71403C115.008 4.12028 115.33 4.60258 115.55 5.13338C115.77 5.66418 115.883 6.23308 115.883 6.80762V16.4326ZM113.695 5.93262C113.695 6.1922 113.618 6.44596 113.474 6.6618C113.33 6.87764 113.125 7.04587 112.885 7.14521C112.645 7.24455 112.381 7.27054 112.127 7.2199C111.872 7.16925 111.638 7.04425 111.455 6.86069C111.271 6.67714 111.146 6.44327 111.096 6.18867C111.045 5.93407 111.071 5.67017 111.17 5.43035C111.27 5.19052 111.438 4.98553 111.654 4.84131C111.869 4.69709 112.123 4.62012 112.383 4.62012C112.731 4.62012 113.065 4.7584 113.311 5.00454C113.557 5.25068 113.695 5.58452 113.695 5.93262Z" fill="#2B306A"/>
<path opacity="0.4" d="M22.7345 4.88484C22.8022 4.79151 22.7019 4.66901 22.5945 4.71101C21.8253 5.00934 21.0219 5.2104 20.2028 5.30951C21.1127 4.76602 21.818 3.93771 22.2095 2.95284C22.2492 2.85251 22.1395 2.76267 22.0462 2.81517C21.198 3.28301 20.2845 3.62017 19.3337 3.81501C19.3141 3.81894 19.2939 3.81779 19.2749 3.81166C19.2559 3.80553 19.2388 3.79464 19.2252 3.78001C18.5096 3.02503 17.5675 2.52387 16.5415 2.35249C15.5155 2.1811 14.4617 2.34883 13.5396 2.83025C12.6175 3.31166 11.8775 4.08053 11.4317 5.02034C10.9859 5.96015 10.8585 7.01967 11.069 8.03834C11.0728 8.05608 11.0724 8.07444 11.068 8.09202C11.0635 8.1096 11.0552 8.12593 11.0435 8.13978C11.0318 8.15362 11.017 8.16461 11.0004 8.1719C10.9838 8.17919 10.9658 8.18259 10.9477 8.18184C9.10137 8.06717 7.29796 7.5765 5.64807 6.73992C3.99819 5.90334 2.53661 4.73849 1.35301 3.31684C1.3412 3.30205 1.32589 3.29043 1.30847 3.28301C1.29106 3.2756 1.27207 3.27262 1.25322 3.27436C1.23437 3.27609 1.21624 3.28248 1.20047 3.29295C1.18469 3.30342 1.17177 3.31764 1.16285 3.33434C0.794489 4.03312 0.602259 4.81125 0.602848 5.60117C0.601355 6.38795 0.794434 7.16289 1.1649 7.857C1.53536 8.55111 2.0717 9.14284 2.72618 9.57951C2.0328 9.56066 1.35208 9.38938 0.732348 9.07784C0.653014 9.03701 0.557348 9.09417 0.560848 9.18284C0.607414 10.2341 0.988807 11.243 1.64935 12.0622C2.35117 12.9122 3.32501 13.4937 4.40618 13.7083C3.98998 13.835 3.55787 13.9018 3.12285 13.9067C2.88632 13.9038 2.6502 13.8863 2.41585 13.8542C2.32835 13.8425 2.25718 13.9242 2.28751 14.0058C2.62168 14.9104 3.22081 15.6932 4.0067 16.252C4.79259 16.8108 5.72871 17.1197 6.69285 17.1383C4.83122 18.6025 2.49362 19.3261 0.130348 19.1695C0.00668105 19.1613 -0.0504855 19.3258 0.0556812 19.3888C2.14543 20.6289 4.53119 21.2819 6.96118 21.2788C8.75739 21.2975 10.5393 20.9581 12.2029 20.2804C13.8664 19.6027 15.3783 18.6003 16.6502 17.3318C17.922 16.0633 18.9284 14.5541 19.6105 12.8924C20.2926 11.2306 20.6367 9.44959 20.6229 7.65334V7.09334C20.6229 7.07523 20.6271 7.05736 20.6352 7.04117C20.6433 7.02497 20.655 7.01087 20.6695 7.00001C21.4604 6.40297 22.1566 5.68987 22.7345 4.88484Z" fill="#2B306A"/>
</svg>
